# 3ds Max Wavefront OBJ Exporter v0.97b - (c)2007 guruware
# File Created: 20.04.2017 04:09:05

mtllib medieval_house.mtl

#
# object medieval_house
#

v  -70.0773 0.0000 -0.0000
v  -70.0773 0.0000 -70.0000
v  -0.0773 0.0000 -70.0000
v  -0.0773 0.0000 -0.0000
v  -0.0773 0.4622 -0.0000
v  -70.0773 0.4622 -0.0000
v  -0.0773 0.4622 -70.0000
v  -70.0773 0.4622 -70.0000
v  -17.2343 0.4622 -31.1123
v  -29.9995 0.4622 -31.1123
v  -39.4974 0.4622 -31.1123
v  -52.2625 0.4622 -31.1123
v  -17.2343 0.4622 -64.0341
v  -52.2625 0.4622 -64.0341
v  -39.4974 0.4622 -32.4639
v  -29.9995 0.4622 -32.4639
v  -29.9995 7.8965 -32.4639
v  -30.3766 9.5580 -32.4639
v  -31.1819 10.7914 -32.4639
v  -32.4153 11.5967 -32.4639
v  -34.0768 11.9738 -32.4639
v  -35.4200 11.9738 -32.4639
v  -37.0816 11.5967 -32.4639
v  -38.3149 10.7914 -32.4639
v  -39.1202 9.5580 -32.4639
v  -39.4974 7.8965 -32.4639
v  -17.2343 15.6937 -64.0341
v  -17.2343 15.6937 -31.1123
v  -52.2625 15.6937 -64.0341
v  -52.2625 15.6937 -31.1123
v  -53.0566 15.6937 -30.3181
v  -16.4402 15.6937 -30.3181
v  -16.4402 17.2569 -30.3181
v  -53.0566 17.2437 -30.3181
v  -16.4402 15.6937 -64.8282
v  -16.4402 17.2437 -64.8282
v  -53.0566 15.6937 -64.8282
v  -53.0566 17.2437 -64.8282
v  -18.1045 18.0988 -30.3181
v  -34.7484 40.7167 -30.3181
v  -51.3923 18.0856 -30.3181
v  -51.3923 18.0856 -64.8282
v  -34.7484 40.7167 -64.8282
v  -18.1045 18.0856 -64.8282
v  -34.7484 42.1378 -30.3181
v  -34.7484 42.1378 -64.8282
v  -16.4402 17.2569 -29.1450
v  -34.7484 42.1378 -27.0387
v  -34.7484 40.7167 -27.1615
v  -18.1045 18.0988 -29.0758
v  -53.0566 17.2437 -29.1450
v  -51.3923 18.0856 -29.0758
v  -53.0566 17.2437 -66.0013
v  -34.7484 42.1378 -68.1077
v  -34.7484 40.7167 -67.9899
v  -51.3923 18.0856 -66.0687
v  -16.4402 17.2437 -66.0013
v  -18.1045 18.0856 -66.0687
v  -20.0248 23.4526 -46.6346
v  -20.0248 23.4526 -53.8619
v  -20.0248 29.7116 -50.2483
v  -20.0248 30.8891 -50.2483
v  -20.0248 22.8638 -54.8816
v  -29.8111 22.8638 -54.8816
v  -29.8111 30.8891 -50.2483
v  -20.0248 20.5177 -54.8816
v  -20.0248 20.5177 -45.6149
v  -29.8111 20.5177 -45.6149
v  -29.8111 20.5177 -54.8816
v  -20.0248 22.8638 -45.6149
v  -29.8111 22.8638 -45.6149
v  -18.4373 22.8638 -54.8816
v  -17.3163 30.8891 -50.2483
v  -17.4769 29.7116 -50.2483
v  -18.3556 23.4526 -53.8619
v  -18.4373 22.8638 -45.6149
v  -18.3556 23.4526 -46.6346
v  -39.4974 7.8965 -31.1123
v  -39.1202 9.5580 -31.1123
v  -38.3149 10.7914 -31.1123
v  -37.0816 11.5967 -31.1123
v  -35.4200 11.9738 -31.1123
v  -34.0768 11.9738 -31.1123
v  -32.4153 11.5967 -31.1123
v  -31.1819 10.7914 -31.1123
v  -30.3766 9.5580 -31.1123
v  -29.9995 7.8965 -31.1123
v  -30.6370 0.4622 -31.1123
v  -30.6330 7.8255 -31.1123
v  -30.6330 7.8255 -32.4639
v  -30.6370 0.4622 -32.4639
v  -34.1478 11.3403 -31.1123
v  -35.3490 11.3403 -31.1123
v  -35.3490 11.3403 -32.4639
v  -34.1478 11.3403 -32.4639
v  -38.8638 7.8255 -31.1123
v  -38.8598 0.4622 -31.1123
v  -38.8598 0.4622 -32.4639
v  -38.8638 7.8255 -32.4639
v  -30.9636 9.3093 -31.1123
v  -30.9636 9.3093 -32.4639
v  -31.6327 10.3406 -31.1123
v  -31.6327 10.3406 -32.4639
v  -36.8328 11.0097 -31.1123
v  -36.8328 11.0097 -32.4639
v  -37.8641 10.3406 -31.1123
v  -37.8641 10.3406 -32.4639
v  -32.6640 11.0097 -32.4639
v  -32.6640 11.0097 -31.1123
v  -38.5332 9.3093 -32.4639
v  -38.5332 9.3093 -31.1123
v  -29.9995 0.4622 -30.4747
v  -29.9995 7.8965 -30.4747
v  -30.6330 7.8255 -30.4747
v  -30.6370 0.4622 -30.4747
v  -30.3766 9.5580 -30.4747
v  -30.9636 9.3093 -30.4747
v  -31.1819 10.7914 -30.4747
v  -31.6327 10.3406 -30.4747
v  -32.4153 11.5967 -30.4747
v  -32.6640 11.0097 -30.4747
v  -34.0768 11.9738 -30.4747
v  -34.1478 11.3403 -30.4747
v  -35.4200 11.9738 -30.4747
v  -35.3490 11.3403 -30.4747
v  -37.0816 11.5967 -30.4747
v  -36.8328 11.0097 -30.4747
v  -38.3149 10.7914 -30.4747
v  -37.8641 10.3406 -30.4747
v  -39.1202 9.5580 -30.4747
v  -38.5332 9.3093 -30.4747
v  -39.4974 7.8965 -30.4747
v  -38.8638 7.8255 -30.4747
v  -39.4974 0.4622 -30.4747
v  -38.8598 0.4622 -30.4747
v  -21.1622 5.7692 -30.8603
v  -21.1622 10.7542 -30.8604
v  -26.1472 10.7542 -30.8604
v  -26.1472 5.7692 -30.8604
v  -20.7136 5.3206 -31.2848
v  -26.5958 5.3206 -31.2848
v  -26.5958 11.2028 -31.2848
v  -20.7136 11.2028 -31.2848
v  -20.7136 5.3206 -30.6632
v  -26.5958 5.3206 -30.6632
v  -26.5958 11.2028 -30.6632
v  -20.7136 11.2028 -30.6632
v  -21.1622 10.7542 -30.6632
v  -21.1622 5.7692 -30.6632
v  -26.1472 10.7542 -30.6632
v  -26.1472 5.7692 -30.6632
v  -43.3165 5.7692 -30.8604
v  -43.3165 10.7542 -30.8604
v  -48.3015 10.7542 -30.8604
v  -48.3015 5.7692 -30.8604
v  -42.8678 5.3206 -31.2848
v  -48.7501 5.3206 -31.2848
v  -48.7501 11.2028 -31.2848
v  -42.8678 11.2028 -31.2848
v  -42.8678 5.3206 -30.6632
v  -48.7501 5.3206 -30.6632
v  -48.7501 11.2028 -30.6632
v  -42.8678 11.2028 -30.6632
v  -43.3165 10.7542 -30.6632
v  -43.3165 5.7692 -30.6632
v  -48.3015 10.7542 -30.6632
v  -48.3015 5.7692 -30.6632
v  -42.1801 29.3877 -55.5984
v  -42.7151 29.3877 -56.1334
v  -42.7151 29.3877 -60.4136
v  -42.1801 29.3877 -60.9486
v  -37.8999 29.3877 -60.9486
v  -37.3649 29.3877 -60.4136
v  -37.3649 29.3877 -56.1334
v  -37.8999 29.3877 -55.5984
v  -42.6231 42.8677 -55.6905
v  -37.4570 42.8677 -55.6905
v  -37.4570 42.8677 -60.8566
v  -42.6231 42.8677 -60.8566
v  -37.8999 40.0880 -55.5984
v  -42.1801 40.0880 -55.5984
v  -37.3649 40.0880 -60.4136
v  -37.3649 40.0880 -56.1335
v  -42.1801 40.0880 -60.9486
v  -37.8999 40.0880 -60.9486
v  -42.7151 40.0880 -56.1335
v  -42.7151 40.0880 -60.4136
v  -42.9724 40.4802 -55.3411
v  -37.1076 40.4802 -55.3411
v  -36.8127 40.9296 -55.0462
v  -43.2673 40.9296 -55.0462
v  -37.1076 40.4802 -61.2059
v  -36.8127 40.9296 -61.5008
v  -42.9724 40.4802 -61.2059
v  -43.2673 40.9296 -61.5008
v  -36.8127 41.8222 -55.0462
v  -43.2673 41.8222 -55.0462
v  -36.8127 41.8222 -61.5008
v  -43.2673 41.8222 -61.5008
# 199 vertices

vn -0.5774 -0.5774 0.5774
vn -0.5774 -0.5774 -0.5774
vn 0.5774 -0.5774 -0.5774
vn 0.5774 -0.5774 0.5774
vn 0.5774 0.5774 0.5774
vn -0.5774 0.5774 0.5774
vn 0.5774 0.5774 -0.5774
vn -0.5774 0.5774 -0.5774
vn 0.3015 0.9045 0.3015
vn -0.3015 0.9045 0.3015
vn 0.3015 0.9045 -0.3015
vn -0.3015 0.9045 -0.3015
vn -0.9932 -0.1162 -0.0000
vn -1.0000 0.0000 -0.0000
vn -0.9936 -0.1114 0.0184
vn 0.9207 0.3902 -0.0000
vn -0.1774 -0.1774 0.9680
vn -0.3901 -0.9207 0.0135
vn 0.1112 0.9920 -0.0601
vn -0.1112 0.9920 -0.0601
vn 0.3901 -0.9207 0.0135
vn 0.2920 -0.2920 0.9107
vn -0.9202 0.3899 0.0342
vn 0.9934 -0.1113 0.0292
vn 0.3015 -0.9045 -0.3015
vn 0.3015 -0.9045 0.3015
vn -0.3015 -0.9045 -0.3015
vn -0.3015 -0.9045 0.3015
vn -0.5773 -0.5774 0.5773
vn 0.8514 0.1156 0.5117
vn -0.8514 0.1153 0.5117
vn 0.8513 0.1152 -0.5118
vn -0.8513 0.1153 -0.5118
vn -0.4174 -0.4932 0.7632
vn 0.0001 -0.8264 0.5631
vn 0.4175 -0.4931 0.7633
vn 0.4175 -0.4931 -0.7633
vn 0.0000 -0.8264 -0.5631
vn -0.4175 -0.4931 -0.7633
vn -0.0001 1.0000 0.0000
vn 0.6538 -0.5550 0.5143
vn -0.0001 0.7985 0.6019
vn 0.0001 -0.4048 0.9144
vn -0.4787 -0.6096 0.6319
vn -0.6537 -0.5551 0.5143
vn 0.4788 -0.6095 0.6319
vn -0.6536 -0.5550 -0.5145
vn 0.0000 0.7992 -0.6010
vn 0.0000 -0.4018 -0.9157
vn 0.4795 -0.6099 -0.6309
vn 0.6536 -0.5550 -0.5145
vn -0.4795 -0.6099 -0.6309
vn 0.7703 -0.4509 -0.4509
vn 0.7703 -0.4509 0.4509
vn 0.5547 -0.8321 0.0000
vn 0.0000 1.0000 -0.0000
vn 0.5121 0.0515 -0.8574
vn -0.6532 0.1960 -0.7314
vn -0.5547 0.8321 -0.0000
vn 0.5121 0.0515 0.8574
vn -0.6532 0.1960 0.7314
vn 0.4937 -0.6165 -0.6134
vn 0.6178 0.7863 -0.0000
vn 0.9235 -0.3836 -0.0000
vn 0.6118 -0.5928 0.5237
vn 0.4937 -0.6165 0.6134
vn 0.6118 -0.5928 -0.5237
vn -0.7260 0.0814 -0.6829
vn -0.6840 0.2898 -0.6694
vn -0.5290 0.5290 -0.6636
vn -0.2898 0.6840 -0.6694
vn -0.0814 0.7260 -0.6829
vn 0.0814 0.7260 -0.6829
vn 0.2898 0.6840 -0.6694
vn 0.5290 0.5290 -0.6636
vn 0.6840 0.2898 -0.6694
vn 0.7260 0.0814 -0.6829
vn -0.7073 -0.7069 -0.0000
vn -0.9940 -0.1091 0.0000
vn -0.6765 -0.0743 -0.7326
vn -0.5775 -0.5772 -0.5773
vn -0.1094 -0.9940 0.0000
vn 0.1094 -0.9940 0.0000
vn 0.0745 -0.6766 -0.7326
vn -0.0745 -0.6766 -0.7326
vn 0.9940 -0.1091 0.0000
vn 0.7073 -0.7069 -0.0000
vn 0.5775 -0.5772 -0.5773
vn 0.6765 -0.0743 -0.7326
vn -0.9221 -0.3870 0.0000
vn -0.6107 -0.2563 -0.7492
vn -0.7071 -0.7071 0.0000
vn -0.4619 -0.4619 -0.7572
vn 0.3870 -0.9221 0.0000
vn 0.2563 -0.6107 -0.7492
vn 0.7071 -0.7071 0.0000
vn 0.4619 -0.4619 -0.7572
vn -0.2563 -0.6107 -0.7492
vn -0.3870 -0.9221 0.0000
vn 0.6107 -0.2563 -0.7492
vn 0.9221 -0.3870 0.0000
vn 0.7260 0.0814 0.6829
vn -0.6765 -0.0743 0.7326
vn -0.5775 -0.5772 0.5773
vn 0.6840 0.2898 0.6694
vn -0.6107 -0.2563 0.7492
vn 0.5290 0.5290 0.6636
vn -0.4619 -0.4619 0.7572
vn 0.2898 0.6840 0.6694
vn -0.2563 -0.6107 0.7493
vn 0.0814 0.7260 0.6829
vn -0.0745 -0.6766 0.7326
vn -0.0814 0.7260 0.6829
vn 0.0745 -0.6766 0.7326
vn -0.2898 0.6840 0.6694
vn 0.2563 -0.6107 0.7493
vn -0.5290 0.5290 0.6636
vn 0.4619 -0.4619 0.7572
vn -0.6840 0.2898 0.6694
vn 0.6107 -0.2563 0.7492
vn -0.7260 0.0814 0.6829
vn 0.6765 -0.0743 0.7326
vn 0.5775 -0.5772 0.5773
vn 0.5773 0.5774 0.5774
vn 0.5774 -0.5774 -0.5773
vn -0.5774 -0.5774 -0.5773
vn -0.5773 0.5773 -0.5774
vn 0.5774 0.5774 -0.5773
vn 0.5773 -0.5773 0.5774
vn -0.5774 -0.5773 0.5774
vn -0.5774 0.5774 0.5773
vn -0.3015 -0.3015 0.9045
vn -0.3015 0.3015 0.9045
vn 0.3015 -0.3015 0.9045
vn 0.3015 0.3015 0.9045
vn 0.5774 0.5773 -0.5774
vn 0.5774 0.5774 0.5773
vn -0.2971 -0.6303 0.7173
vn -0.7173 -0.6303 0.2971
vn -0.7173 -0.6303 -0.2971
vn -0.2971 -0.6303 -0.7173
vn 0.2971 -0.6303 -0.7173
vn 0.7173 -0.6303 -0.2971
vn 0.7173 -0.6303 0.2971
vn 0.2971 -0.6303 0.7173
vn -0.3910 0.8332 0.3910
vn 0.3910 0.8332 0.3910
vn 0.3910 0.8332 -0.3911
vn -0.3910 0.8332 -0.3911
vn 0.2495 -0.4094 0.8776
vn -0.2495 -0.4094 0.8776
vn 0.8776 -0.4094 -0.2495
vn 0.8776 -0.4094 0.2495
vn -0.2495 -0.4094 -0.8776
vn 0.2495 -0.4094 -0.8776
vn -0.8776 -0.4094 0.2495
vn -0.8776 -0.4094 -0.2495
vn -0.4907 -0.7200 0.4907
vn 0.4907 -0.7200 0.4907
vn 0.6702 -0.3189 0.6702
vn -0.6702 -0.3189 0.6702
vn 0.4907 -0.7201 -0.4907
vn 0.6702 -0.3189 -0.6702
vn -0.4907 -0.7201 -0.4907
vn -0.6702 -0.3189 -0.6702
vn 0.6728 0.3075 0.6728
vn -0.6728 0.3075 0.6728
vn 0.6728 0.3075 -0.6728
vn -0.6728 0.3075 -0.6728
# 169 vertex normals

vt 1.0000 0.0000 0.0000
vt 1.0000 1.0000 0.0000
vt 0.0000 1.0000 0.0000
vt 0.0000 0.0000 0.0000
vt 0.6356 0.0000 0.0000
vt 0.3644 0.0000 0.0000
vt 0.5774 0.0000 0.0000
vt 0.5192 0.0000 0.0000
vt 0.4808 0.0000 0.0000
vt 0.4226 0.0000 0.0000
vt 0.5000 0.0000 0.0000
vt 0.5000 1.0000 0.0000
vt 0.4167 0.0000 1.0000
vt 0.0833 0.0000 1.0000
vt -0.2500 0.0000 1.0000
vt 0.0833 1.0000 1.0000
vt -0.2500 1.0000 1.0000
vt 0.4167 1.0000 1.0000
vt 0.7500 0.0000 1.0000
vt 0.7500 1.0000 1.0000
vt 0.3333 1.0000 -2.0000
vt 0.9000 0.0000 0.0000
vt 1.0000 0.1000 0.0000
vt 1.0000 0.9000 0.0000
vt 0.9000 1.0000 0.0000
vt 0.1000 1.0000 0.0000
vt 0.0000 0.9000 0.0000
vt 0.0000 0.1000 0.0000
vt 0.1000 0.0000 0.0000
vt 0.0293 -0.0000 0.0000
vt 0.0293 1.0000 0.0000
vt 0.9707 1.0000 0.0000
vt 0.9707 0.0000 0.0000
# 33 texture coords

o medieval_house
g medieval_house
usemtl wire_184228153
s 1
f 1/1/1 2/2/2 3/3/3 4/4/4 
s 2
f 1/4/1 4/1/4 5/2/5 6/3/6 
s 4
f 4/4/4 3/1/3 7/2/7 5/3/5 
s 2
f 3/4/3 2/1/2 8/2/8 7/3/7 
s 4
f 2/4/2 1/1/1 6/2/6 8/3/8 
s 1
f 6/4/6 5/1/5 9/1/9 10/5/5 11/6/6 12/4/10 
s 8
f 5/1/5 7/2/7 13/2/11 9/1/9 
s 1
f 7/2/7 8/3/8 14/3/12 13/2/11 
s 8
f 8/3/8 6/4/6 12/4/10 14/3/12 
s 2
f 15/6/13 16/5/14 17/5/15 18/5/16 19/5/17 20/7/18 21/8/19 22/9/20 23/10/21 24/6/22 25/6/23 26/6/24 
f 9/1/9 13/2/11 27/2/25 28/1/26 
s 4
f 13/2/11 14/3/12 29/3/27 27/2/25 
s 2
f 14/3/12 12/4/10 30/4/28 29/3/27 
s 1
f 31/4/29 32/1/4 33/1/30 34/4/31 
s 2
f 32/1/4 35/2/3 36/2/32 33/1/30 
s 1
f 35/2/3 37/3/2 38/3/33 36/2/32 
s 2
f 37/3/2 31/4/29 34/4/31 38/3/33 
s 8
f 30/4/28 28/1/26 32/1/4 31/4/29 
f 28/1/26 27/2/25 35/2/3 32/1/4 
f 27/2/25 29/3/27 37/3/2 35/2/3 
f 29/3/27 30/4/28 31/4/29 37/3/2 
s 1
f 39/1/34 40/11/35 41/4/36 
s 2
f 42/3/37 43/12/38 44/2/39 
s 4
f 34/4/31 45/11/40 46/12/40 38/3/33 
s 8
f 36/2/32 46/12/40 45/11/40 33/1/30 
s 1
f 47/1/41 48/11/42 49/11/43 50/1/44 
s 2
f 48/11/42 51/4/45 52/4/46 49/11/43 
s 16
f 34/4/31 33/1/30 39/1/34 41/4/36 
s 1
f 53/3/47 54/12/48 55/12/49 56/3/50 
s 2
f 54/12/48 57/2/51 58/2/52 55/12/49 
s 1
f 36/2/32 38/3/33 42/3/37 44/2/39 
s 8
f 33/1/30 45/11/40 48/11/42 47/1/41 
s 4
f 45/11/40 34/4/31 51/4/45 48/11/42 
s 8
f 34/4/31 41/4/36 52/4/46 51/4/45 
s 4
f 41/4/36 40/11/35 49/11/43 52/4/46 
s 8
f 40/11/35 39/1/34 50/1/44 49/11/43 
s 4
f 39/1/34 33/1/30 47/1/41 50/1/44 
f 38/3/33 46/12/40 54/12/48 53/3/47 
s 8
f 46/12/40 36/2/32 57/2/51 54/12/48 
s 4
f 36/2/32 44/2/39 58/2/52 57/2/51 
s 8
f 44/2/39 43/12/38 55/12/49 58/2/52 
s 4
f 43/12/38 42/3/37 56/3/50 55/12/49 
s 8
f 42/3/37 38/3/33 53/3/47 56/3/50 
s 1
f 59/13/53 60/14/54 61/15/55 
s 2
f 62/15/56 63/14/57 64/16/58 65/17/59 
s 4
f 66/14/3 67/13/4 68/18/1 69/16/2 
s 8
f 70/13/60 62/19/56 65/20/59 71/18/61 
s 1
f 71/18/61 65/20/59 64/21/58 
f 72/14/62 73/15/63 74/15/64 75/14/65 
f 73/15/63 76/13/66 77/13/67 74/15/64 
f 70/13/60 63/14/57 60/14/54 59/13/53 
s 2
f 63/14/57 62/15/56 73/15/63 72/14/62 
s 8
f 62/15/56 70/13/60 76/13/66 73/15/63 
s 2
f 70/13/60 59/13/53 77/13/67 76/13/66 
s 4
f 59/13/53 61/15/55 74/15/64 77/13/67 
s 2
f 61/15/55 60/14/54 75/14/65 74/15/64 
s 8
f 60/14/54 63/14/57 72/14/62 75/14/65 
s 4
f 30/4/28 12/4/10 11/6/6 78/6/68 79/6/69 80/6/70 81/10/71 82/9/72 83/8/73 84/7/74 85/5/75 86/5/76 87/5/77 10/5/5 9/1/9 28/1/26 
s 1
f 11/6/6 10/5/5 16/5/14 15/6/13 
s 8
f 88/5/78 89/5/79 90/5/80 91/5/81 
s 1
f 92/8/82 93/9/83 94/9/84 95/8/85 
s 8
f 96/6/86 97/6/87 98/6/88 99/6/89 
s 1
f 90/5/80 89/5/79 100/5/90 101/5/91 
s 8
f 101/5/91 100/5/90 102/5/92 103/5/93 
f 94/9/84 93/9/83 104/10/94 105/10/95 
s 1
f 105/10/95 104/10/94 106/6/96 107/6/97 
s 8
f 92/8/82 95/8/85 108/7/98 109/7/99 
s 1
f 109/7/99 108/7/98 103/5/93 102/5/92 
f 96/6/86 99/6/89 110/6/100 111/6/101 
s 8
f 111/6/101 110/6/100 107/6/97 106/6/96 
s off
f 64/16/58 63/14/57 66/14/3 69/16/2 
f 63/14/57 70/13/60 67/13/4 66/14/3 
f 70/13/60 71/18/61 68/18/1 67/13/4 
f 71/18/61 64/16/58 69/16/2 68/18/1 
f 17/5/15 16/5/14 91/5/81 90/5/80 
f 16/5/14 10/5/5 88/5/78 91/5/81 
f 112/5/4 113/5/102 114/5/103 115/5/104 
f 113/5/102 116/5/105 117/5/106 114/5/103 
f 116/5/105 118/5/107 119/5/108 117/5/106 
f 118/5/107 120/7/109 121/7/110 119/5/108 
f 120/7/109 122/8/111 123/8/112 121/7/110 
f 122/8/111 124/9/113 125/9/114 123/8/112 
f 124/9/113 126/10/115 127/10/116 125/9/114 
f 126/10/115 128/6/117 129/6/118 127/10/116 
f 128/6/117 130/6/119 131/6/120 129/6/118 
f 130/6/119 132/6/121 133/6/122 131/6/120 
f 132/6/121 134/6/1 135/6/123 133/6/122 
f 11/6/6 15/6/13 98/6/88 97/6/87 
f 15/6/13 26/6/24 99/6/89 98/6/88 
f 26/6/24 25/6/23 110/6/100 99/6/89 
f 25/6/23 24/6/22 107/6/97 110/6/100 
f 24/6/22 23/10/21 105/10/95 107/6/97 
f 23/10/21 22/9/20 94/9/84 105/10/95 
f 22/9/20 21/8/19 95/8/85 94/9/84 
f 21/8/19 20/7/18 108/7/98 95/8/85 
f 20/7/18 19/5/17 103/5/93 108/7/98 
f 19/5/17 18/5/16 101/5/91 103/5/93 
f 18/5/16 17/5/15 90/5/80 101/5/91 
f 10/5/5 87/5/77 113/5/102 112/5/4 
f 87/5/77 86/5/76 116/5/105 113/5/102 
f 86/5/76 85/5/75 118/5/107 116/5/105 
f 85/5/75 84/7/74 120/7/109 118/5/107 
f 84/7/74 83/8/73 122/8/111 120/7/109 
f 83/8/73 82/9/72 124/9/113 122/8/111 
f 82/9/72 81/10/71 126/10/115 124/9/113 
f 81/10/71 80/6/70 128/6/117 126/10/115 
f 80/6/70 79/6/69 130/6/119 128/6/117 
f 79/6/69 78/6/68 132/6/121 130/6/119 
f 78/6/68 11/6/6 134/6/1 132/6/121 
f 11/6/6 97/6/87 135/6/123 134/6/1 
f 97/6/87 96/6/86 133/6/122 135/6/123 
f 96/6/86 111/6/101 131/6/120 133/6/122 
f 111/6/101 106/6/96 129/6/118 131/6/120 
f 106/6/96 104/10/94 127/10/116 129/6/118 
f 104/10/94 93/9/83 125/9/114 127/10/116 
f 93/9/83 92/8/82 123/8/112 125/9/114 
f 92/8/82 109/7/99 121/7/110 123/8/112 
f 109/7/99 102/5/92 119/5/108 121/7/110 
f 102/5/92 100/5/90 117/5/106 119/5/108 
f 100/5/90 89/5/79 114/5/103 117/5/106 
f 89/5/79 88/5/78 115/5/104 114/5/103 
f 88/5/78 10/5/5 112/5/4 115/5/104 
s 2
f 136/1/6 137/2/1 138/3/4 139/4/124 
s 4
f 140/4/125 141/1/126 142/2/127 143/3/128 
s 8
f 144/4/129 145/1/130 141/2/126 140/3/125 
s 16
f 145/4/130 146/1/131 142/2/127 141/3/126 
s 32
f 146/4/131 147/1/124 143/2/128 142/3/127 
s 64
f 147/4/124 144/1/129 140/2/125 143/3/128 
s off
f 144/1/129 147/2/124 148/2/132 149/1/133 
f 147/2/124 146/3/131 150/3/134 148/2/132 
f 146/3/131 145/4/130 151/4/135 150/3/134 
f 145/4/130 144/1/129 149/1/133 151/4/135 
f 149/1/133 148/2/132 137/2/1 136/1/6 
f 148/2/132 150/3/134 138/3/4 137/2/1 
f 150/3/134 151/4/135 139/4/124 138/3/4 
f 151/4/135 149/1/133 136/1/6 139/4/124 
s 2
f 152/1/6 153/2/1 154/3/4 155/4/5 
s 4
f 156/4/125 157/1/2 158/2/127 159/3/136 
s 8
f 160/4/129 161/1/1 157/2/2 156/3/125 
s 16
f 161/4/1 162/1/131 158/2/127 157/3/2 
s 32
f 162/4/131 163/1/137 159/2/136 158/3/127 
s 64
f 163/4/137 160/1/129 156/2/125 159/3/136 
s off
f 160/1/129 163/2/137 164/2/132 165/1/133 
f 163/2/137 162/3/131 166/3/134 164/2/132 
f 162/3/131 161/4/1 167/4/135 166/3/134 
f 161/4/1 160/1/129 165/1/133 167/4/135 
f 165/1/133 164/2/132 153/2/1 152/1/6 
f 164/2/132 166/3/134 154/3/4 153/2/1 
f 166/3/134 167/4/135 155/4/5 154/3/4 
f 167/4/135 165/1/133 152/1/6 155/4/5 
s 1
f 168/22/138 169/23/139 170/24/140 171/25/141 172/26/142 173/27/143 174/28/144 175/29/145 
f 176/4/146 177/1/147 178/2/148 179/3/149 
s 2
f 168/29/138 175/22/145 180/25/150 181/26/151 
f 174/29/144 173/22/143 182/25/152 183/26/153 
f 172/29/142 171/22/141 184/25/154 185/26/155 
f 170/29/140 169/22/139 186/25/156 187/26/157 
s 1
f 188/4/158 181/29/151 180/22/150 189/1/159 190/1/160 191/4/161 
s 4
f 189/1/159 183/23/153 182/24/152 192/2/162 193/2/163 190/1/160 
s 1
f 192/2/162 185/25/155 184/26/154 194/3/164 195/3/165 193/2/163 
s 4
f 194/3/164 187/27/157 186/28/156 188/4/158 191/4/161 195/3/165 
s 2
f 191/4/161 190/1/160 196/1/166 197/4/167 
s 8
f 190/1/160 193/2/163 198/2/168 196/1/166 
s 2
f 193/2/163 195/3/165 199/3/169 198/2/168 
s 8
f 195/3/165 191/4/161 197/4/167 199/3/169 
s 4
f 197/4/167 196/1/166 177/1/147 176/4/146 
s 16
f 196/1/166 198/2/168 178/2/148 177/1/147 
s 4
f 198/2/168 199/3/169 179/3/149 178/2/148 
s 16
f 199/3/169 197/4/167 176/4/146 179/3/149 
s 8
f 181/29/151 188/4/158 186/28/156 
f 183/23/153 189/1/159 180/22/150 
f 187/27/157 194/3/164 184/26/154 
f 185/25/155 192/2/162 182/24/152 
s 16
f 175/30/145 174/29/144 183/26/153 180/31/150 
f 181/32/151 186/25/156 169/22/139 168/33/138 
f 173/30/143 172/29/142 185/26/155 182/31/152 
f 171/30/141 170/29/140 187/26/157 184/31/154 
# 168 polygons - 8 triangles

